<svg width="269" height="97" viewBox="0 0 269 97" fill="none" xmlns="http://www.w3.org/2000/svg">
<path d="M0 64.6667V32.3333H32.3333V0H64.6667V32.3333H97V64.6667H64.6667V97H32.3333V64.6667H0Z" fill="#6AD68E"/>
<path d="M141.624 52.432C138.424 52.432 135.624 51.728 133.224 50.32C130.856 48.88 129.016 46.864 127.704 44.272C126.424 41.648 125.784 38.576 125.784 35.056C125.784 32.4 126.152 30.016 126.888 27.904C127.624 25.76 128.68 23.936 130.056 22.432C131.432 20.896 133.096 19.728 135.048 18.928C137 18.128 139.192 17.728 141.624 17.728C144.856 17.728 147.656 18.432 150.024 19.84C152.392 21.248 154.216 23.248 155.496 25.84C156.808 28.432 157.464 31.488 157.464 35.008C157.464 37.664 157.096 40.064 156.36 42.208C155.624 44.352 154.552 46.192 153.144 47.728C151.768 49.264 150.104 50.432 148.152 51.232C146.2 52.032 144.024 52.432 141.624 52.432ZM141.624 48.112C143.864 48.112 145.768 47.6 147.336 46.576C148.936 45.552 150.152 44.064 150.984 42.112C151.848 40.16 152.28 37.808 152.28 35.056C152.28 30.928 151.352 27.728 149.496 25.456C147.64 23.184 145.016 22.048 141.624 22.048C139.384 22.048 137.464 22.56 135.864 23.584C134.296 24.576 133.08 26.048 132.216 28C131.384 29.952 130.968 32.304 130.968 35.056C130.968 39.152 131.896 42.352 133.752 44.656C135.64 46.96 138.264 48.112 141.624 48.112ZM166.555 52.336C165.819 52.336 165.243 52.128 164.827 51.712C164.443 51.296 164.251 50.72 164.251 49.984V20.176C164.251 19.408 164.459 18.832 164.875 18.448C165.291 18.032 165.851 17.824 166.555 17.824C167.227 17.824 167.739 17.952 168.091 18.208C168.475 18.432 168.827 18.848 169.147 19.456L181.723 42.928H180.235L192.763 19.456C193.083 18.848 193.419 18.432 193.771 18.208C194.123 17.952 194.635 17.824 195.307 17.824C196.011 17.824 196.555 18.032 196.939 18.448C197.323 18.832 197.515 19.408 197.515 20.176V49.984C197.515 50.72 197.323 51.296 196.939 51.712C196.587 52.128 196.043 52.336 195.307 52.336C194.571 52.336 194.011 52.128 193.627 51.712C193.243 51.296 193.051 50.72 193.051 49.984V25.216H194.107L182.971 45.808C182.715 46.288 182.443 46.64 182.155 46.864C181.867 47.088 181.467 47.2 180.955 47.2C180.443 47.2 180.027 47.088 179.707 46.864C179.387 46.608 179.099 46.256 178.843 45.808L167.611 25.168H168.763V49.984C168.763 50.72 168.571 51.296 168.187 51.712C167.835 52.128 167.291 52.336 166.555 52.336ZM215.435 52.432C213.643 52.432 211.819 52.192 209.963 51.712C208.107 51.2 206.491 50.448 205.115 49.456C204.603 49.136 204.251 48.752 204.059 48.304C203.899 47.824 203.867 47.392 203.963 47.008C204.059 46.592 204.251 46.24 204.539 45.952C204.859 45.664 205.243 45.504 205.691 45.472C206.139 45.408 206.635 45.536 207.179 45.856C208.555 46.688 209.899 47.296 211.211 47.68C212.523 48.032 213.883 48.208 215.291 48.208C216.827 48.208 218.123 47.984 219.179 47.536C220.235 47.088 221.019 46.432 221.531 45.568C222.075 44.704 222.347 43.664 222.347 42.448C222.347 40.624 221.739 39.264 220.523 38.368C219.339 37.44 217.611 36.976 215.339 36.976H212.075C211.339 36.976 210.779 36.8 210.395 36.448C210.011 36.064 209.819 35.536 209.819 34.864C209.819 34.224 210.011 33.728 210.395 33.376C210.779 32.992 211.339 32.8 212.075 32.8H214.859C216.235 32.8 217.403 32.576 218.363 32.128C219.323 31.648 220.059 30.992 220.571 30.16C221.115 29.296 221.387 28.256 221.387 27.04C221.387 25.408 220.843 24.16 219.755 23.296C218.699 22.4 217.147 21.952 215.099 21.952C213.787 21.952 212.539 22.128 211.355 22.48C210.203 22.832 209.003 23.456 207.755 24.352C207.275 24.672 206.811 24.816 206.363 24.784C205.947 24.72 205.579 24.56 205.259 24.304C204.971 24.016 204.763 23.664 204.635 23.248C204.539 22.832 204.571 22.4 204.73 21.952C204.891 21.504 205.211 21.12 205.691 20.8C207.035 19.808 208.555 19.056 210.251 18.544C211.947 18 213.691 17.728 215.483 17.728C217.723 17.728 219.643 18.08 221.243 18.784C222.875 19.488 224.107 20.496 224.939 21.808C225.803 23.12 226.234 24.688 226.234 26.512C226.234 27.888 225.979 29.136 225.467 30.256C224.955 31.376 224.219 32.336 223.259 33.136C222.331 33.904 221.195 34.448 219.851 34.768V34.24C222.187 34.624 223.995 35.584 225.275 37.12C226.555 38.624 227.195 40.512 227.195 42.784C227.195 44.768 226.715 46.496 225.755 47.968C224.827 49.408 223.483 50.512 221.723 51.28C219.963 52.048 217.867 52.432 215.435 52.432ZM244.744 52.432C240.808 52.432 237.8 50.944 235.72 47.968C233.672 44.96 232.648 40.656 232.648 35.056C232.648 31.248 233.112 28.064 234.04 25.504C234.968 22.944 236.328 21.008 238.12 19.696C239.912 18.384 242.12 17.728 244.744 17.728C248.712 17.728 251.72 19.2 253.768 22.144C255.816 25.056 256.84 29.344 256.84 35.008C256.84 38.752 256.376 41.92 255.448 44.512C254.52 47.104 253.16 49.072 251.368 50.416C249.576 51.76 247.368 52.432 244.744 52.432ZM244.744 48.304C247.208 48.304 249.016 47.232 250.168 45.088C251.352 42.912 251.944 39.552 251.944 35.008C251.944 30.432 251.352 27.104 250.168 25.024C249.016 22.912 247.208 21.856 244.744 21.856C242.312 21.856 240.504 22.912 239.32 25.024C238.136 27.104 237.544 30.432 237.544 35.008C237.544 39.552 238.136 42.912 239.32 45.088C240.504 47.232 242.312 48.304 244.744 48.304Z" fill="#6AD68E"/>
<path d="M126.216 85.168C125.816 85.168 125.504 85.056 125.28 84.832C125.072 84.608 124.968 84.296 124.968 83.896V69.352C124.968 68.936 125.08 68.624 125.304 68.416C125.528 68.192 125.84 68.08 126.24 68.08H131.976C133.8 68.08 135.208 68.536 136.2 69.448C137.192 70.344 137.688 71.608 137.688 73.24C137.688 74.888 137.192 76.168 136.2 77.08C135.208 77.976 133.8 78.424 131.976 78.424H127.464V83.896C127.464 84.296 127.36 84.608 127.152 84.832C126.944 85.056 126.632 85.168 126.216 85.168ZM127.464 76.432H131.616C132.816 76.432 133.72 76.168 134.328 75.64C134.952 75.096 135.264 74.296 135.264 73.24C135.264 72.2 134.952 71.416 134.328 70.888C133.72 70.344 132.816 70.072 131.616 70.072H127.464V76.432ZM143.261 85.216C142.445 85.216 141.709 85.056 141.053 84.736C140.413 84.416 139.909 83.984 139.541 83.44C139.173 82.896 138.989 82.28 138.989 81.592C138.989 80.728 139.205 80.048 139.637 79.552C140.085 79.04 140.813 78.68 141.821 78.472C142.845 78.248 144.221 78.136 145.949 78.136H147.077V79.624H145.973C144.821 79.624 143.909 79.68 143.237 79.792C142.565 79.904 142.085 80.096 141.797 80.368C141.525 80.624 141.389 80.984 141.389 81.448C141.389 82.056 141.597 82.552 142.013 82.936C142.429 83.304 143.005 83.488 143.741 83.488C144.333 83.488 144.853 83.352 145.301 83.08C145.749 82.792 146.101 82.408 146.357 81.928C146.629 81.448 146.765 80.896 146.765 80.272V77.512C146.765 76.6 146.573 75.944 146.189 75.544C145.805 75.144 145.173 74.944 144.293 74.944C143.781 74.944 143.245 75.008 142.685 75.136C142.141 75.264 141.573 75.48 140.98 75.784C140.709 75.912 140.477 75.952 140.285 75.904C140.093 75.856 139.941 75.752 139.829 75.592C139.717 75.416 139.653 75.232 139.637 75.04C139.637 74.832 139.685 74.632 139.781 74.44C139.893 74.248 140.077 74.104 140.333 74.008C141.037 73.672 141.733 73.432 142.421 73.288C143.109 73.144 143.757 73.072 144.365 73.072C145.437 73.072 146.317 73.24 147.005 73.576C147.709 73.912 148.229 74.424 148.565 75.112C148.901 75.8 149.069 76.688 149.069 77.776V83.944C149.069 84.328 148.973 84.632 148.781 84.856C148.589 85.064 148.309 85.168 147.941 85.168C147.589 85.168 147.309 85.064 147.101 84.856C146.893 84.632 146.789 84.328 146.789 83.944V82.384H147.005C146.877 82.976 146.637 83.488 146.285 83.92C145.949 84.336 145.525 84.656 145.013 84.88C144.501 85.104 143.917 85.216 143.261 85.216ZM157.567 85.216C156.367 85.216 155.327 84.968 154.447 84.472C153.583 83.96 152.911 83.248 152.431 82.336C151.951 81.408 151.711 80.32 151.711 79.072C151.711 78.144 151.847 77.312 152.119 76.576C152.391 75.824 152.775 75.192 153.271 74.68C153.783 74.168 154.399 73.776 155.119 73.504C155.855 73.216 156.671 73.072 157.567 73.072C158.127 73.072 158.711 73.16 159.319 73.336C159.943 73.496 160.519 73.768 161.047 74.152C161.255 74.28 161.383 74.44 161.431 74.632C161.495 74.808 161.503 74.992 161.455 75.184C161.423 75.376 161.335 75.544 161.191 75.688C161.063 75.816 160.903 75.896 160.711 75.928C160.519 75.944 160.311 75.888 160.087 75.76C159.703 75.488 159.311 75.296 158.911 75.184C158.511 75.056 158.127 74.992 157.759 74.992C157.183 74.992 156.671 75.088 156.223 75.28C155.791 75.456 155.423 75.72 155.119 76.072C154.815 76.408 154.583 76.832 154.423 77.344C154.279 77.856 154.207 78.44 154.207 79.096C154.207 80.408 154.511 81.44 155.119 82.192C155.743 82.928 156.623 83.296 157.759 83.296C158.127 83.296 158.511 83.24 158.911 83.128C159.311 83.016 159.703 82.824 160.087 82.552C160.311 82.424 160.519 82.376 160.711 82.408C160.903 82.44 161.055 82.528 161.167 82.672C161.295 82.8 161.375 82.96 161.407 83.152C161.455 83.328 161.447 83.512 161.383 83.704C161.319 83.896 161.183 84.056 160.975 84.184C160.463 84.552 159.903 84.816 159.295 84.976C158.703 85.136 158.127 85.216 157.567 85.216ZM164.81 85.144C164.426 85.144 164.13 85.032 163.922 84.808C163.714 84.568 163.61 84.24 163.61 83.824V74.464C163.61 74.048 163.714 73.728 163.922 73.504C164.13 73.28 164.426 73.168 164.81 73.168C165.194 73.168 165.49 73.28 165.698 73.504C165.922 73.728 166.034 74.048 166.034 74.464V83.824C166.034 84.24 165.93 84.568 165.722 84.808C165.514 85.032 165.21 85.144 164.81 85.144ZM164.81 70.672C164.33 70.672 163.954 70.552 163.682 70.312C163.426 70.072 163.298 69.736 163.298 69.304C163.298 68.856 163.426 68.52 163.682 68.296C163.954 68.056 164.33 67.936 164.81 67.936C165.29 67.936 165.658 68.056 165.914 68.296C166.186 68.52 166.322 68.856 166.322 69.304C166.322 69.736 166.186 70.072 165.914 70.312C165.658 70.552 165.29 70.672 164.81 70.672ZM174.942 85.216C173.662 85.216 172.558 84.976 171.63 84.496C170.718 84 170.006 83.304 169.494 82.408C168.998 81.496 168.75 80.416 168.75 79.168C168.75 77.952 168.998 76.888 169.494 75.976C169.99 75.064 170.67 74.352 171.534 73.84C172.398 73.328 173.382 73.072 174.486 73.072C175.302 73.072 176.03 73.208 176.67 73.48C177.31 73.736 177.854 74.12 178.302 74.632C178.766 75.128 179.11 75.736 179.334 76.456C179.574 77.176 179.694 77.984 179.694 78.88C179.694 79.152 179.614 79.36 179.454 79.504C179.294 79.632 179.054 79.696 178.734 79.696H170.67V78.208H178.062L177.654 78.544C177.654 77.744 177.534 77.064 177.294 76.504C177.07 75.944 176.726 75.52 176.262 75.232C175.814 74.928 175.254 74.776 174.582 74.776C173.83 74.776 173.19 74.952 172.662 75.304C172.15 75.656 171.758 76.144 171.486 76.768C171.214 77.392 171.078 78.12 171.078 78.952V79.096C171.078 80.504 171.406 81.568 172.062 82.288C172.734 82.992 173.702 83.344 174.966 83.344C175.446 83.344 175.95 83.28 176.478 83.152C177.022 83.024 177.534 82.808 178.014 82.504C178.286 82.344 178.526 82.272 178.734 82.288C178.958 82.304 179.134 82.376 179.262 82.504C179.406 82.632 179.494 82.792 179.526 82.984C179.558 83.176 179.526 83.376 179.43 83.584C179.334 83.776 179.166 83.952 178.926 84.112C178.382 84.48 177.75 84.76 177.03 84.952C176.31 85.128 175.614 85.216 174.942 85.216ZM183.537 85.168C183.153 85.168 182.857 85.064 182.649 84.856C182.441 84.632 182.337 84.328 182.337 83.944V74.344C182.337 73.944 182.441 73.64 182.649 73.432C182.857 73.224 183.145 73.12 183.513 73.12C183.897 73.12 184.185 73.224 184.377 73.432C184.585 73.64 184.689 73.944 184.689 74.344V76.216L184.425 75.784C184.777 74.888 185.329 74.216 186.081 73.768C186.833 73.304 187.697 73.072 188.673 73.072C189.601 73.072 190.369 73.248 190.977 73.6C191.601 73.936 192.065 74.456 192.369 75.16C192.673 75.848 192.825 76.72 192.825 77.776V83.944C192.825 84.328 192.721 84.632 192.513 84.856C192.305 85.064 192.009 85.168 191.625 85.168C191.225 85.168 190.921 85.064 190.713 84.856C190.505 84.632 190.401 84.328 190.401 83.944V77.92C190.401 76.912 190.201 76.176 189.801 75.712C189.417 75.248 188.809 75.016 187.977 75.016C187.001 75.016 186.217 75.32 185.625 75.928C185.049 76.536 184.761 77.352 184.761 78.376V83.944C184.761 84.76 184.353 85.168 183.537 85.168ZM201.157 85.216C200.197 85.216 199.389 85.048 198.733 84.712C198.077 84.376 197.589 83.88 197.269 83.224C196.949 82.568 196.789 81.768 196.789 80.824V75.16H195.349C195.029 75.16 194.781 75.08 194.605 74.92C194.429 74.744 194.341 74.512 194.341 74.224C194.341 73.92 194.429 73.688 194.605 73.528C194.781 73.368 195.029 73.288 195.349 73.288H196.789V70.816C196.789 70.416 196.893 70.112 197.101 69.904C197.325 69.696 197.629 69.592 198.013 69.592C198.397 69.592 198.693 69.696 198.901 69.904C199.109 70.112 199.213 70.416 199.213 70.816V73.288H202.021C202.341 73.288 202.589 73.368 202.765 73.528C202.941 73.688 203.029 73.92 203.029 74.224C203.029 74.512 202.941 74.744 202.765 74.92C202.589 75.08 202.341 75.16 202.021 75.16H199.213V80.632C199.213 81.48 199.389 82.12 199.741 82.552C200.109 82.984 200.701 83.2 201.517 83.2C201.805 83.2 202.053 83.176 202.261 83.128C202.485 83.064 202.669 83.024 202.813 83.008C202.989 83.008 203.133 83.072 203.245 83.2C203.357 83.312 203.413 83.536 203.413 83.872C203.413 84.112 203.365 84.336 203.269 84.544C203.189 84.752 203.037 84.888 202.813 84.952C202.621 85.016 202.357 85.072 202.021 85.12C201.701 85.184 201.413 85.216 201.157 85.216ZM210.309 85.216C209.029 85.216 207.925 84.976 206.997 84.496C206.085 84 205.373 83.304 204.861 82.408C204.365 81.496 204.117 80.416 204.117 79.168C204.117 77.952 204.365 76.888 204.861 75.976C205.357 75.064 206.037 74.352 206.901 73.84C207.765 73.328 208.749 73.072 209.853 73.072C210.669 73.072 211.397 73.208 212.037 73.48C212.677 73.736 213.221 74.12 213.669 74.632C214.133 75.128 214.477 75.736 214.701 76.456C214.941 77.176 215.061 77.984 215.061 78.88C215.061 79.152 214.981 79.36 214.821 79.504C214.661 79.632 214.421 79.696 214.101 79.696H206.037V78.208H213.429L213.021 78.544C213.021 77.744 212.901 77.064 212.661 76.504C212.437 75.944 212.093 75.52 211.629 75.232C211.181 74.928 210.621 74.776 209.949 74.776C209.197 74.776 208.557 74.952 208.029 75.304C207.517 75.656 207.125 76.144 206.853 76.768C206.581 77.392 206.445 78.12 206.445 78.952V79.096C206.445 80.504 206.773 81.568 207.429 82.288C208.101 82.992 209.069 83.344 210.333 83.344C210.813 83.344 211.317 83.28 211.845 83.152C212.389 83.024 212.901 82.808 213.381 82.504C213.653 82.344 213.893 82.272 214.101 82.288C214.325 82.304 214.501 82.376 214.629 82.504C214.773 82.632 214.861 82.792 214.893 82.984C214.925 83.176 214.893 83.376 214.797 83.584C214.701 83.776 214.533 83.952 214.293 84.112C213.749 84.48 213.117 84.76 212.397 84.952C211.677 85.128 210.981 85.216 210.309 85.216ZM221.808 85.216C221.104 85.216 220.376 85.136 219.624 84.976C218.888 84.816 218.208 84.544 217.584 84.16C217.376 84.016 217.232 83.856 217.152 83.68C217.072 83.504 217.04 83.328 217.056 83.152C217.088 82.96 217.16 82.8 217.272 82.672C217.4 82.528 217.552 82.44 217.728 82.408C217.92 82.376 218.12 82.416 218.328 82.528C218.952 82.88 219.552 83.128 220.128 83.272C220.704 83.4 221.272 83.464 221.832 83.464C222.68 83.464 223.32 83.312 223.752 83.008C224.184 82.704 224.4 82.296 224.4 81.784C224.4 81.368 224.256 81.048 223.968 80.824C223.68 80.584 223.248 80.4 222.672 80.272L220.392 79.816C219.4 79.608 218.648 79.24 218.136 78.712C217.624 78.184 217.368 77.512 217.368 76.696C217.368 75.96 217.568 75.32 217.968 74.776C218.368 74.232 218.928 73.816 219.648 73.528C220.368 73.224 221.2 73.072 222.144 73.072C222.848 73.072 223.512 73.16 224.136 73.336C224.76 73.512 225.336 73.776 225.864 74.128C226.072 74.24 226.208 74.392 226.272 74.584C226.336 74.76 226.344 74.936 226.296 75.112C226.264 75.288 226.184 75.448 226.056 75.592C225.928 75.72 225.768 75.8 225.576 75.832C225.4 75.848 225.2 75.8 224.976 75.688C224.496 75.384 224.016 75.168 223.536 75.04C223.072 74.912 222.608 74.848 222.144 74.848C221.296 74.848 220.656 75.008 220.224 75.328C219.808 75.632 219.6 76.048 219.6 76.576C219.6 76.976 219.728 77.304 219.984 77.56C220.24 77.816 220.64 78 221.184 78.112L223.464 78.568C224.504 78.776 225.288 79.128 225.816 79.624C226.36 80.12 226.632 80.792 226.632 81.64C226.632 82.744 226.192 83.616 225.312 84.256C224.432 84.896 223.264 85.216 221.808 85.216Z" fill="#545454"/>
</svg>
